<svg xmlns="http://www.w3.org/2000/svg" width="46.906" height="58.227" viewBox="0 0 46.906 58.227">
  <g id="Group_6846" data-name="Group 6846" transform="translate(6174.971 17163.459)">
    <path id="Path_6169" data-name="Path 6169" d="M89.611,69.766A18.035,18.035,0,1,0,78.077,88.53v5.549a5.817,5.817,0,0,0,11.635,0V70.814a5.77,5.77,0,0,0-.1-1.047" transform="translate(-6217.776 -17205.129)" fill="#03a8cd"/>
    <path id="Path_6170" data-name="Path 6170" d="M99.615,98.4A10.442,10.442,0,1,1,89.173,87.962,10.442,10.442,0,0,1,99.615,98.4" transform="translate(-6236.794 -17231.146)" fill="#fff"/>
    <path id="Path_6171" data-name="Path 6171" d="M26.97,16.943a17.993,17.993,0,0,0-6.4,1.174V10.081a5.817,5.817,0,1,0-11.634,0V33.347a5.8,5.8,0,0,0,.031.6c-.019.342-.031.687-.031,1.034A18.039,18.039,0,1,0,26.97,16.943" transform="translate(-6183.902 -17167.723)" fill="#155c7d"/>
    <path id="Path_6172" data-name="Path 6172" d="M63.593,98.041A10.442,10.442,0,1,1,53.151,87.6,10.442,10.442,0,0,1,63.593,98.041" transform="translate(-6209.499 -17230.869)" fill="#fff"/>
  </g>
</svg>
